<mxfile host="Electron" agent="Mozilla/5.0 (Windows NT 10.0; Win64; x64) AppleWebKit/537.36 (KHTML, like Gecko) draw.io/26.0.4 Chrome/128.0.6613.186 Electron/32.2.5 Safari/537.36" version="26.0.4">
  <diagram name="第 1 页" id="fd4EhWadq59LHY81k3FC">
    <mxGraphModel dx="893" dy="519" grid="1" gridSize="10" guides="1" tooltips="1" connect="1" arrows="1" fold="1" page="1" pageScale="1" pageWidth="827" pageHeight="1169" math="0" shadow="0">
      <root>
        <mxCell id="0" />
        <mxCell id="1" parent="0" />
        <mxCell id="CQehMLbI-TvT4RRxddDj-187" value="pll_top" style="whiteSpace=wrap;html=1;aspect=fixed;fillColor=#dae8fc;strokeColor=#6c8ebf;" parent="1" vertex="1">
          <mxGeometry x="220" y="813" width="110" height="110" as="geometry" />
        </mxCell>
        <mxCell id="CQehMLbI-TvT4RRxddDj-188" value="sys_clk" style="endArrow=classic;html=1;rounded=0;entryX=0.001;entryY=0.183;entryDx=0;entryDy=0;entryPerimeter=0;verticalAlign=bottom;" parent="1" edge="1">
          <mxGeometry width="50" height="50" relative="1" as="geometry">
            <mxPoint x="130" y="832.6600000000001" as="sourcePoint" />
            <mxPoint x="219.9999999999999" y="832.6600000000001" as="targetPoint" />
          </mxGeometry>
        </mxCell>
        <mxCell id="CQehMLbI-TvT4RRxddDj-189" value="rst_n" style="endArrow=classic;html=1;rounded=0;entryX=0.001;entryY=0.183;entryDx=0;entryDy=0;entryPerimeter=0;verticalAlign=bottom;" parent="1" edge="1">
          <mxGeometry width="50" height="50" relative="1" as="geometry">
            <mxPoint x="130" y="873" as="sourcePoint" />
            <mxPoint x="220" y="873" as="targetPoint" />
          </mxGeometry>
        </mxCell>
        <mxCell id="CQehMLbI-TvT4RRxddDj-192" value="clk_100m" style="endArrow=classic;html=1;rounded=0;verticalAlign=bottom;" parent="1" edge="1">
          <mxGeometry width="50" height="50" relative="1" as="geometry">
            <mxPoint x="330" y="843" as="sourcePoint" />
            <mxPoint x="430" y="843" as="targetPoint" />
          </mxGeometry>
        </mxCell>
        <mxCell id="CQehMLbI-TvT4RRxddDj-193" value="clk_100m_180p" style="endArrow=classic;html=1;rounded=0;verticalAlign=bottom;" parent="1" edge="1">
          <mxGeometry width="50" height="50" relative="1" as="geometry">
            <mxPoint x="330" y="863" as="sourcePoint" />
            <mxPoint x="430" y="863" as="targetPoint" />
          </mxGeometry>
        </mxCell>
        <mxCell id="C8HlrMilD8jxbRCgvtTR-1" value="clk_50m" style="endArrow=classic;html=1;rounded=0;verticalAlign=bottom;" parent="1" edge="1">
          <mxGeometry width="50" height="50" relative="1" as="geometry">
            <mxPoint x="330" y="883" as="sourcePoint" />
            <mxPoint x="430" y="883" as="targetPoint" />
          </mxGeometry>
        </mxCell>
        <mxCell id="C8HlrMilD8jxbRCgvtTR-2" value="clk_25m" style="endArrow=classic;html=1;rounded=0;verticalAlign=bottom;" parent="1" edge="1">
          <mxGeometry width="50" height="50" relative="1" as="geometry">
            <mxPoint x="330" y="903" as="sourcePoint" />
            <mxPoint x="430" y="903" as="targetPoint" />
          </mxGeometry>
        </mxCell>
        <mxCell id="CQehMLbI-TvT4RRxddDj-194" value="Assets" style="childLayout=tableLayout;recursiveResize=0;strokeColor=#98bf21;fillColor=#A7C942;shadow=1;" parent="1" vertex="1">
          <mxGeometry x="510" y="670" width="400" height="253" as="geometry" />
        </mxCell>
        <mxCell id="CQehMLbI-TvT4RRxddDj-195" style="shape=tableRow;horizontal=0;startSize=0;swimlaneHead=0;swimlaneBody=0;top=0;left=0;bottom=0;right=0;dropTarget=0;collapsible=0;recursiveResize=0;expand=0;fontStyle=0;strokeColor=inherit;fillColor=#ffffff;" parent="CQehMLbI-TvT4RRxddDj-194" vertex="1">
          <mxGeometry width="400" height="33" as="geometry" />
        </mxCell>
        <mxCell id="CQehMLbI-TvT4RRxddDj-196" value="信号名" style="connectable=0;recursiveResize=0;strokeColor=inherit;fillColor=#A7C942;align=center;fontStyle=1;fontColor=#FFFFFF;html=1;" parent="CQehMLbI-TvT4RRxddDj-195" vertex="1">
          <mxGeometry width="93" height="33" as="geometry">
            <mxRectangle width="93" height="33" as="alternateBounds" />
          </mxGeometry>
        </mxCell>
        <mxCell id="CQehMLbI-TvT4RRxddDj-197" value="位宽" style="connectable=0;recursiveResize=0;strokeColor=inherit;fillColor=#A7C942;align=center;fontStyle=1;fontColor=#FFFFFF;html=1;" parent="CQehMLbI-TvT4RRxddDj-195" vertex="1">
          <mxGeometry x="93" width="93" height="33" as="geometry">
            <mxRectangle width="93" height="33" as="alternateBounds" />
          </mxGeometry>
        </mxCell>
        <mxCell id="CQehMLbI-TvT4RRxddDj-198" value="方向" style="connectable=0;recursiveResize=0;strokeColor=inherit;fillColor=#A7C942;align=center;fontStyle=1;fontColor=#FFFFFF;html=1;" parent="CQehMLbI-TvT4RRxddDj-195" vertex="1">
          <mxGeometry x="186" width="94" height="33" as="geometry">
            <mxRectangle width="94" height="33" as="alternateBounds" />
          </mxGeometry>
        </mxCell>
        <mxCell id="CQehMLbI-TvT4RRxddDj-199" value="端口说明" style="connectable=0;recursiveResize=0;strokeColor=inherit;fillColor=#A7C942;align=center;fontStyle=1;fontColor=#FFFFFF;html=1;" parent="CQehMLbI-TvT4RRxddDj-195" vertex="1">
          <mxGeometry x="280" width="120" height="33" as="geometry">
            <mxRectangle width="120" height="33" as="alternateBounds" />
          </mxGeometry>
        </mxCell>
        <mxCell id="CQehMLbI-TvT4RRxddDj-200" value="" style="shape=tableRow;horizontal=0;startSize=0;swimlaneHead=0;swimlaneBody=0;top=0;left=0;bottom=0;right=0;dropTarget=0;collapsible=0;recursiveResize=0;expand=0;fontStyle=0;strokeColor=inherit;fillColor=#ffffff;" parent="CQehMLbI-TvT4RRxddDj-194" vertex="1">
          <mxGeometry y="33" width="400" height="32" as="geometry" />
        </mxCell>
        <mxCell id="CQehMLbI-TvT4RRxddDj-201" value="sys_clk" style="connectable=0;recursiveResize=0;strokeColor=inherit;fillColor=inherit;align=center;whiteSpace=wrap;html=1;" parent="CQehMLbI-TvT4RRxddDj-200" vertex="1">
          <mxGeometry width="93" height="32" as="geometry">
            <mxRectangle width="93" height="32" as="alternateBounds" />
          </mxGeometry>
        </mxCell>
        <mxCell id="CQehMLbI-TvT4RRxddDj-202" value="1" style="connectable=0;recursiveResize=0;strokeColor=inherit;fillColor=inherit;align=center;whiteSpace=wrap;html=1;" parent="CQehMLbI-TvT4RRxddDj-200" vertex="1">
          <mxGeometry x="93" width="93" height="32" as="geometry">
            <mxRectangle width="93" height="32" as="alternateBounds" />
          </mxGeometry>
        </mxCell>
        <mxCell id="CQehMLbI-TvT4RRxddDj-203" value="输入" style="connectable=0;recursiveResize=0;strokeColor=inherit;fillColor=inherit;align=center;whiteSpace=wrap;html=1;" parent="CQehMLbI-TvT4RRxddDj-200" vertex="1">
          <mxGeometry x="186" width="94" height="32" as="geometry">
            <mxRectangle width="94" height="32" as="alternateBounds" />
          </mxGeometry>
        </mxCell>
        <mxCell id="CQehMLbI-TvT4RRxddDj-204" value="系统时钟 50MHz" style="connectable=0;recursiveResize=0;strokeColor=inherit;fillColor=inherit;align=center;whiteSpace=wrap;html=1;" parent="CQehMLbI-TvT4RRxddDj-200" vertex="1">
          <mxGeometry x="280" width="120" height="32" as="geometry">
            <mxRectangle width="120" height="32" as="alternateBounds" />
          </mxGeometry>
        </mxCell>
        <mxCell id="-UpipHxd_0CRtgNWQj3M-2" value="" style="shape=tableRow;horizontal=0;startSize=0;swimlaneHead=0;swimlaneBody=0;top=0;left=0;bottom=0;right=0;dropTarget=0;collapsible=0;recursiveResize=0;expand=0;fontStyle=1;strokeColor=inherit;fillColor=#EAF2D3;" parent="CQehMLbI-TvT4RRxddDj-194" vertex="1">
          <mxGeometry y="65" width="400" height="31" as="geometry" />
        </mxCell>
        <mxCell id="-UpipHxd_0CRtgNWQj3M-3" value="rst_n" style="connectable=0;recursiveResize=0;strokeColor=inherit;fillColor=inherit;whiteSpace=wrap;html=1;" parent="-UpipHxd_0CRtgNWQj3M-2" vertex="1">
          <mxGeometry width="93" height="31" as="geometry">
            <mxRectangle width="93" height="31" as="alternateBounds" />
          </mxGeometry>
        </mxCell>
        <mxCell id="-UpipHxd_0CRtgNWQj3M-4" value="1" style="connectable=0;recursiveResize=0;strokeColor=inherit;fillColor=inherit;whiteSpace=wrap;html=1;" parent="-UpipHxd_0CRtgNWQj3M-2" vertex="1">
          <mxGeometry x="93" width="93" height="31" as="geometry">
            <mxRectangle width="93" height="31" as="alternateBounds" />
          </mxGeometry>
        </mxCell>
        <mxCell id="-UpipHxd_0CRtgNWQj3M-5" value="输入" style="connectable=0;recursiveResize=0;strokeColor=inherit;fillColor=inherit;whiteSpace=wrap;html=1;" parent="-UpipHxd_0CRtgNWQj3M-2" vertex="1">
          <mxGeometry x="186" width="94" height="31" as="geometry">
            <mxRectangle width="94" height="31" as="alternateBounds" />
          </mxGeometry>
        </mxCell>
        <mxCell id="-UpipHxd_0CRtgNWQj3M-6" value="复位，低电平有效" style="connectable=0;recursiveResize=0;strokeColor=inherit;fillColor=inherit;whiteSpace=wrap;html=1;" parent="-UpipHxd_0CRtgNWQj3M-2" vertex="1">
          <mxGeometry x="280" width="120" height="31" as="geometry">
            <mxRectangle width="120" height="31" as="alternateBounds" />
          </mxGeometry>
        </mxCell>
        <mxCell id="CQehMLbI-TvT4RRxddDj-205" value="" style="shape=tableRow;horizontal=0;startSize=0;swimlaneHead=0;swimlaneBody=0;top=0;left=0;bottom=0;right=0;dropTarget=0;collapsible=0;recursiveResize=0;expand=0;fontStyle=1;strokeColor=inherit;fillColor=#EAF2D3;" parent="CQehMLbI-TvT4RRxddDj-194" vertex="1">
          <mxGeometry y="96" width="400" height="31" as="geometry" />
        </mxCell>
        <mxCell id="CQehMLbI-TvT4RRxddDj-206" value="locked" style="connectable=0;recursiveResize=0;strokeColor=inherit;fillColor=inherit;whiteSpace=wrap;html=1;" parent="CQehMLbI-TvT4RRxddDj-205" vertex="1">
          <mxGeometry width="93" height="31" as="geometry">
            <mxRectangle width="93" height="31" as="alternateBounds" />
          </mxGeometry>
        </mxCell>
        <mxCell id="CQehMLbI-TvT4RRxddDj-207" value="1" style="connectable=0;recursiveResize=0;strokeColor=inherit;fillColor=inherit;whiteSpace=wrap;html=1;" parent="CQehMLbI-TvT4RRxddDj-205" vertex="1">
          <mxGeometry x="93" width="93" height="31" as="geometry">
            <mxRectangle width="93" height="31" as="alternateBounds" />
          </mxGeometry>
        </mxCell>
        <mxCell id="CQehMLbI-TvT4RRxddDj-208" value="输出" style="connectable=0;recursiveResize=0;strokeColor=inherit;fillColor=inherit;whiteSpace=wrap;html=1;" parent="CQehMLbI-TvT4RRxddDj-205" vertex="1">
          <mxGeometry x="186" width="94" height="31" as="geometry">
            <mxRectangle width="94" height="31" as="alternateBounds" />
          </mxGeometry>
        </mxCell>
        <mxCell id="CQehMLbI-TvT4RRxddDj-209" value="PLL完成锁定，已达到稳态信号" style="connectable=0;recursiveResize=0;strokeColor=inherit;fillColor=inherit;whiteSpace=wrap;html=1;" parent="CQehMLbI-TvT4RRxddDj-205" vertex="1">
          <mxGeometry x="280" width="120" height="31" as="geometry">
            <mxRectangle width="120" height="31" as="alternateBounds" />
          </mxGeometry>
        </mxCell>
        <mxCell id="CQehMLbI-TvT4RRxddDj-210" value="" style="shape=tableRow;horizontal=0;startSize=0;swimlaneHead=0;swimlaneBody=0;top=0;left=0;bottom=0;right=0;dropTarget=0;collapsible=0;recursiveResize=0;expand=0;fontStyle=0;strokeColor=inherit;fillColor=#ffffff;" parent="CQehMLbI-TvT4RRxddDj-194" vertex="1">
          <mxGeometry y="127" width="400" height="33" as="geometry" />
        </mxCell>
        <mxCell id="CQehMLbI-TvT4RRxddDj-211" value="&lt;span style=&quot;font-size: 11px; text-wrap: nowrap; background-color: rgb(255, 255, 255);&quot;&gt;clk_100m&lt;/span&gt;" style="connectable=0;recursiveResize=0;strokeColor=inherit;fillColor=inherit;fontStyle=0;align=center;whiteSpace=wrap;html=1;" parent="CQehMLbI-TvT4RRxddDj-210" vertex="1">
          <mxGeometry width="93" height="33" as="geometry">
            <mxRectangle width="93" height="33" as="alternateBounds" />
          </mxGeometry>
        </mxCell>
        <mxCell id="CQehMLbI-TvT4RRxddDj-212" value="1" style="connectable=0;recursiveResize=0;strokeColor=inherit;fillColor=inherit;fontStyle=0;align=center;whiteSpace=wrap;html=1;" parent="CQehMLbI-TvT4RRxddDj-210" vertex="1">
          <mxGeometry x="93" width="93" height="33" as="geometry">
            <mxRectangle width="93" height="33" as="alternateBounds" />
          </mxGeometry>
        </mxCell>
        <mxCell id="CQehMLbI-TvT4RRxddDj-213" value="输出" style="connectable=0;recursiveResize=0;strokeColor=inherit;fillColor=inherit;fontStyle=0;align=center;whiteSpace=wrap;html=1;" parent="CQehMLbI-TvT4RRxddDj-210" vertex="1">
          <mxGeometry x="186" width="94" height="33" as="geometry">
            <mxRectangle width="94" height="33" as="alternateBounds" />
          </mxGeometry>
        </mxCell>
        <mxCell id="CQehMLbI-TvT4RRxddDj-214" value="输出时钟100Mhz" style="connectable=0;recursiveResize=0;strokeColor=inherit;fillColor=inherit;fontStyle=0;align=center;whiteSpace=wrap;html=1;" parent="CQehMLbI-TvT4RRxddDj-210" vertex="1">
          <mxGeometry x="280" width="120" height="33" as="geometry">
            <mxRectangle width="120" height="33" as="alternateBounds" />
          </mxGeometry>
        </mxCell>
        <mxCell id="C8HlrMilD8jxbRCgvtTR-33" value="" style="shape=tableRow;horizontal=0;startSize=0;swimlaneHead=0;swimlaneBody=0;top=0;left=0;bottom=0;right=0;dropTarget=0;collapsible=0;recursiveResize=0;expand=0;fontStyle=1;strokeColor=inherit;fillColor=#EAF2D3;" parent="CQehMLbI-TvT4RRxddDj-194" vertex="1">
          <mxGeometry y="160" width="400" height="31" as="geometry" />
        </mxCell>
        <mxCell id="C8HlrMilD8jxbRCgvtTR-34" value="clk_100m_180p" style="connectable=0;recursiveResize=0;strokeColor=inherit;fillColor=inherit;whiteSpace=wrap;html=1;" parent="C8HlrMilD8jxbRCgvtTR-33" vertex="1">
          <mxGeometry width="93" height="31" as="geometry">
            <mxRectangle width="93" height="31" as="alternateBounds" />
          </mxGeometry>
        </mxCell>
        <mxCell id="C8HlrMilD8jxbRCgvtTR-35" value="1" style="connectable=0;recursiveResize=0;strokeColor=inherit;fillColor=inherit;whiteSpace=wrap;html=1;" parent="C8HlrMilD8jxbRCgvtTR-33" vertex="1">
          <mxGeometry x="93" width="93" height="31" as="geometry">
            <mxRectangle width="93" height="31" as="alternateBounds" />
          </mxGeometry>
        </mxCell>
        <mxCell id="C8HlrMilD8jxbRCgvtTR-36" value="输出" style="connectable=0;recursiveResize=0;strokeColor=inherit;fillColor=inherit;whiteSpace=wrap;html=1;" parent="C8HlrMilD8jxbRCgvtTR-33" vertex="1">
          <mxGeometry x="186" width="94" height="31" as="geometry">
            <mxRectangle width="94" height="31" as="alternateBounds" />
          </mxGeometry>
        </mxCell>
        <mxCell id="C8HlrMilD8jxbRCgvtTR-37" value="输出时钟100MHz，相位偏移180度" style="connectable=0;recursiveResize=0;strokeColor=inherit;fillColor=inherit;whiteSpace=wrap;html=1;" parent="C8HlrMilD8jxbRCgvtTR-33" vertex="1">
          <mxGeometry x="280" width="120" height="31" as="geometry">
            <mxRectangle width="120" height="31" as="alternateBounds" />
          </mxGeometry>
        </mxCell>
        <mxCell id="CQehMLbI-TvT4RRxddDj-215" value="" style="shape=tableRow;horizontal=0;startSize=0;swimlaneHead=0;swimlaneBody=0;top=0;left=0;bottom=0;right=0;dropTarget=0;collapsible=0;recursiveResize=0;expand=0;fontStyle=1;strokeColor=inherit;fillColor=#EAF2D3;" parent="CQehMLbI-TvT4RRxddDj-194" vertex="1">
          <mxGeometry y="191" width="400" height="31" as="geometry" />
        </mxCell>
        <mxCell id="CQehMLbI-TvT4RRxddDj-216" value="clk_50m" style="connectable=0;recursiveResize=0;strokeColor=inherit;fillColor=inherit;whiteSpace=wrap;html=1;" parent="CQehMLbI-TvT4RRxddDj-215" vertex="1">
          <mxGeometry width="93" height="31" as="geometry">
            <mxRectangle width="93" height="31" as="alternateBounds" />
          </mxGeometry>
        </mxCell>
        <mxCell id="CQehMLbI-TvT4RRxddDj-217" value="1" style="connectable=0;recursiveResize=0;strokeColor=inherit;fillColor=inherit;whiteSpace=wrap;html=1;" parent="CQehMLbI-TvT4RRxddDj-215" vertex="1">
          <mxGeometry x="93" width="93" height="31" as="geometry">
            <mxRectangle width="93" height="31" as="alternateBounds" />
          </mxGeometry>
        </mxCell>
        <mxCell id="CQehMLbI-TvT4RRxddDj-218" value="输出" style="connectable=0;recursiveResize=0;strokeColor=inherit;fillColor=inherit;whiteSpace=wrap;html=1;" parent="CQehMLbI-TvT4RRxddDj-215" vertex="1">
          <mxGeometry x="186" width="94" height="31" as="geometry">
            <mxRectangle width="94" height="31" as="alternateBounds" />
          </mxGeometry>
        </mxCell>
        <mxCell id="CQehMLbI-TvT4RRxddDj-219" value="输出时钟50MHz" style="connectable=0;recursiveResize=0;strokeColor=inherit;fillColor=inherit;whiteSpace=wrap;html=1;" parent="CQehMLbI-TvT4RRxddDj-215" vertex="1">
          <mxGeometry x="280" width="120" height="31" as="geometry">
            <mxRectangle width="120" height="31" as="alternateBounds" />
          </mxGeometry>
        </mxCell>
        <mxCell id="CQehMLbI-TvT4RRxddDj-220" style="shape=tableRow;horizontal=0;startSize=0;swimlaneHead=0;swimlaneBody=0;top=0;left=0;bottom=0;right=0;dropTarget=0;collapsible=0;recursiveResize=0;expand=0;fontStyle=1;strokeColor=inherit;fillColor=#EAF2D3;" parent="CQehMLbI-TvT4RRxddDj-194" vertex="1">
          <mxGeometry y="222" width="400" height="31" as="geometry" />
        </mxCell>
        <mxCell id="CQehMLbI-TvT4RRxddDj-221" value="clk_25m" style="connectable=0;recursiveResize=0;strokeColor=inherit;fillColor=inherit;whiteSpace=wrap;html=1;" parent="CQehMLbI-TvT4RRxddDj-220" vertex="1">
          <mxGeometry width="93" height="31" as="geometry">
            <mxRectangle width="93" height="31" as="alternateBounds" />
          </mxGeometry>
        </mxCell>
        <mxCell id="CQehMLbI-TvT4RRxddDj-222" value="1" style="connectable=0;recursiveResize=0;strokeColor=inherit;fillColor=inherit;whiteSpace=wrap;html=1;" parent="CQehMLbI-TvT4RRxddDj-220" vertex="1">
          <mxGeometry x="93" width="93" height="31" as="geometry">
            <mxRectangle width="93" height="31" as="alternateBounds" />
          </mxGeometry>
        </mxCell>
        <mxCell id="CQehMLbI-TvT4RRxddDj-223" value="输出" style="connectable=0;recursiveResize=0;strokeColor=inherit;fillColor=inherit;whiteSpace=wrap;html=1;" parent="CQehMLbI-TvT4RRxddDj-220" vertex="1">
          <mxGeometry x="186" width="94" height="31" as="geometry">
            <mxRectangle width="94" height="31" as="alternateBounds" />
          </mxGeometry>
        </mxCell>
        <mxCell id="CQehMLbI-TvT4RRxddDj-224" value="输出时钟25MHz" style="connectable=0;recursiveResize=0;strokeColor=inherit;fillColor=inherit;whiteSpace=wrap;html=1;" parent="CQehMLbI-TvT4RRxddDj-220" vertex="1">
          <mxGeometry x="280" width="120" height="31" as="geometry">
            <mxRectangle width="120" height="31" as="alternateBounds" />
          </mxGeometry>
        </mxCell>
        <mxCell id="-UpipHxd_0CRtgNWQj3M-1" value="locked" style="endArrow=classic;html=1;rounded=0;verticalAlign=bottom;" parent="1" edge="1">
          <mxGeometry width="50" height="50" relative="1" as="geometry">
            <mxPoint x="330" y="823" as="sourcePoint" />
            <mxPoint x="430" y="823" as="targetPoint" />
          </mxGeometry>
        </mxCell>
        <mxCell id="6rrwSWFg2y9wVFzmrVbn-3" value="" style="group" vertex="1" connectable="0" parent="1">
          <mxGeometry x="80" y="40" width="146" height="90" as="geometry" />
        </mxCell>
        <mxCell id="6rrwSWFg2y9wVFzmrVbn-1" value="&lt;font style=&quot;font-size: 18px;&quot;&gt;&lt;b&gt;Master&amp;nbsp; &amp;nbsp;&lt;/b&gt;&lt;/font&gt;" style="rounded=1;whiteSpace=wrap;html=1;labelBackgroundColor=none;fillColor=#dae8fc;strokeColor=#6c8ebf;" vertex="1" parent="6rrwSWFg2y9wVFzmrVbn-3">
          <mxGeometry width="130" height="90" as="geometry" />
        </mxCell>
        <mxCell id="6rrwSWFg2y9wVFzmrVbn-2" value="SCK&lt;div&gt;MOSI&lt;/div&gt;&lt;div&gt;MISO&lt;/div&gt;&lt;div&gt;CS&lt;/div&gt;" style="rounded=0;whiteSpace=wrap;html=1;opacity=0;align=right;" vertex="1" parent="6rrwSWFg2y9wVFzmrVbn-3">
          <mxGeometry x="90" y="5" width="40" height="80" as="geometry" />
        </mxCell>
        <mxCell id="6rrwSWFg2y9wVFzmrVbn-7" value="" style="endArrow=classic;html=1;rounded=0;" edge="1" parent="6rrwSWFg2y9wVFzmrVbn-3">
          <mxGeometry width="50" height="50" relative="1" as="geometry">
            <mxPoint x="130" y="22.985074626865753" as="sourcePoint" />
            <mxPoint x="220" y="23" as="targetPoint" />
          </mxGeometry>
        </mxCell>
        <mxCell id="6rrwSWFg2y9wVFzmrVbn-8" value="" style="edgeStyle=orthogonalEdgeStyle;rounded=0;orthogonalLoop=1;jettySize=auto;html=1;" edge="1" parent="6rrwSWFg2y9wVFzmrVbn-3">
          <mxGeometry relative="1" as="geometry">
            <mxPoint x="130" y="40" as="sourcePoint" />
            <mxPoint x="220" y="40" as="targetPoint" />
          </mxGeometry>
        </mxCell>
        <mxCell id="6rrwSWFg2y9wVFzmrVbn-4" value="" style="group" vertex="1" connectable="0" parent="1">
          <mxGeometry x="300" y="40" width="146" height="90" as="geometry" />
        </mxCell>
        <mxCell id="6rrwSWFg2y9wVFzmrVbn-5" value="&lt;font style=&quot;font-size: 18px;&quot;&gt;&lt;b&gt;&amp;nbsp; &amp;nbsp;Slave&lt;/b&gt;&lt;/font&gt;" style="rounded=1;whiteSpace=wrap;html=1;labelBackgroundColor=none;fillColor=#ffe6cc;strokeColor=#d79b00;" vertex="1" parent="6rrwSWFg2y9wVFzmrVbn-4">
          <mxGeometry width="130" height="90" as="geometry" />
        </mxCell>
        <mxCell id="6rrwSWFg2y9wVFzmrVbn-6" value="SCK&lt;div&gt;MOSI&lt;/div&gt;&lt;div&gt;MISO&lt;/div&gt;&lt;div&gt;CS&lt;/div&gt;" style="rounded=0;whiteSpace=wrap;html=1;opacity=0;align=left;" vertex="1" parent="6rrwSWFg2y9wVFzmrVbn-4">
          <mxGeometry y="5" width="40" height="80" as="geometry" />
        </mxCell>
        <mxCell id="6rrwSWFg2y9wVFzmrVbn-11" value="" style="endArrow=classic;html=1;rounded=0;entryX=0.959;entryY=0.609;entryDx=0;entryDy=0;entryPerimeter=0;" edge="1" parent="1" target="6rrwSWFg2y9wVFzmrVbn-2">
          <mxGeometry width="50" height="50" relative="1" as="geometry">
            <mxPoint x="300" y="94" as="sourcePoint" />
            <mxPoint x="380" y="180" as="targetPoint" />
          </mxGeometry>
        </mxCell>
        <mxCell id="6rrwSWFg2y9wVFzmrVbn-12" value="" style="edgeStyle=orthogonalEdgeStyle;rounded=0;orthogonalLoop=1;jettySize=auto;html=1;" edge="1" parent="1">
          <mxGeometry relative="1" as="geometry">
            <mxPoint x="210" y="107" as="sourcePoint" />
            <mxPoint x="300" y="107" as="targetPoint" />
          </mxGeometry>
        </mxCell>
        <mxCell id="6rrwSWFg2y9wVFzmrVbn-94" value="" style="group" vertex="1" connectable="0" parent="1">
          <mxGeometry x="500" y="20" width="466" height="330" as="geometry" />
        </mxCell>
        <mxCell id="6rrwSWFg2y9wVFzmrVbn-60" value="" style="group" vertex="1" connectable="0" parent="6rrwSWFg2y9wVFzmrVbn-94">
          <mxGeometry x="320" width="146" height="90" as="geometry" />
        </mxCell>
        <mxCell id="6rrwSWFg2y9wVFzmrVbn-61" value="&lt;font style=&quot;font-size: 18px;&quot;&gt;&lt;b&gt;&amp;nbsp; &amp;nbsp;Slave1&lt;/b&gt;&lt;/font&gt;" style="rounded=1;whiteSpace=wrap;html=1;labelBackgroundColor=none;fillColor=#ffe6cc;strokeColor=#d79b00;" vertex="1" parent="6rrwSWFg2y9wVFzmrVbn-60">
          <mxGeometry width="130" height="90" as="geometry" />
        </mxCell>
        <mxCell id="6rrwSWFg2y9wVFzmrVbn-62" value="SCK&lt;div&gt;MOSI&lt;/div&gt;&lt;div&gt;MISO&lt;/div&gt;&lt;div&gt;CS1&lt;/div&gt;" style="rounded=0;whiteSpace=wrap;html=1;opacity=0;align=left;" vertex="1" parent="6rrwSWFg2y9wVFzmrVbn-60">
          <mxGeometry y="5" width="40" height="80" as="geometry" />
        </mxCell>
        <mxCell id="6rrwSWFg2y9wVFzmrVbn-63" value="" style="group" vertex="1" connectable="0" parent="6rrwSWFg2y9wVFzmrVbn-94">
          <mxGeometry y="110" width="146" height="110" as="geometry" />
        </mxCell>
        <mxCell id="6rrwSWFg2y9wVFzmrVbn-64" value="&lt;font style=&quot;font-size: 18px;&quot;&gt;&lt;b&gt;Master&amp;nbsp; &amp;nbsp;&lt;/b&gt;&lt;/font&gt;" style="rounded=1;whiteSpace=wrap;html=1;labelBackgroundColor=none;fillColor=#dae8fc;strokeColor=#6c8ebf;" vertex="1" parent="6rrwSWFg2y9wVFzmrVbn-63">
          <mxGeometry width="130" height="110.00000000000001" as="geometry" />
        </mxCell>
        <mxCell id="6rrwSWFg2y9wVFzmrVbn-65" value="SCK&lt;div&gt;MOSI&lt;/div&gt;&lt;div&gt;MISO&lt;/div&gt;&lt;div&gt;CS1&lt;/div&gt;&lt;div&gt;CS2&lt;/div&gt;&lt;div&gt;CS3&lt;/div&gt;" style="rounded=0;whiteSpace=wrap;html=1;opacity=0;align=right;" vertex="1" parent="6rrwSWFg2y9wVFzmrVbn-63">
          <mxGeometry x="90" y="6.111111111111112" width="40" height="97.77777777777779" as="geometry" />
        </mxCell>
        <mxCell id="6rrwSWFg2y9wVFzmrVbn-66" value="" style="group" vertex="1" connectable="0" parent="6rrwSWFg2y9wVFzmrVbn-94">
          <mxGeometry x="320" y="120" width="146" height="90" as="geometry" />
        </mxCell>
        <mxCell id="6rrwSWFg2y9wVFzmrVbn-67" value="&lt;font style=&quot;font-size: 18px;&quot;&gt;&lt;b&gt;&amp;nbsp; &amp;nbsp;Slave2&lt;/b&gt;&lt;/font&gt;" style="rounded=1;whiteSpace=wrap;html=1;labelBackgroundColor=none;fillColor=#ffe6cc;strokeColor=#d79b00;" vertex="1" parent="6rrwSWFg2y9wVFzmrVbn-66">
          <mxGeometry width="130" height="90" as="geometry" />
        </mxCell>
        <mxCell id="6rrwSWFg2y9wVFzmrVbn-68" value="SCK&lt;div&gt;MOSI&lt;/div&gt;&lt;div&gt;MISO&lt;/div&gt;&lt;div&gt;CS2&lt;/div&gt;" style="rounded=0;whiteSpace=wrap;html=1;opacity=0;align=left;" vertex="1" parent="6rrwSWFg2y9wVFzmrVbn-66">
          <mxGeometry y="5" width="40" height="80" as="geometry" />
        </mxCell>
        <mxCell id="6rrwSWFg2y9wVFzmrVbn-69" value="" style="group" vertex="1" connectable="0" parent="6rrwSWFg2y9wVFzmrVbn-94">
          <mxGeometry x="320" y="240" width="146" height="90" as="geometry" />
        </mxCell>
        <mxCell id="6rrwSWFg2y9wVFzmrVbn-70" value="&lt;font style=&quot;font-size: 18px;&quot;&gt;&lt;b&gt;&amp;nbsp; &amp;nbsp;Slave3&lt;/b&gt;&lt;/font&gt;" style="rounded=1;whiteSpace=wrap;html=1;labelBackgroundColor=none;fillColor=#ffe6cc;strokeColor=#d79b00;" vertex="1" parent="6rrwSWFg2y9wVFzmrVbn-69">
          <mxGeometry width="130" height="90" as="geometry" />
        </mxCell>
        <mxCell id="6rrwSWFg2y9wVFzmrVbn-71" value="SCK&lt;div&gt;MOSI&lt;/div&gt;&lt;div&gt;MISO&lt;/div&gt;&lt;div&gt;CS3&lt;/div&gt;" style="rounded=0;whiteSpace=wrap;html=1;opacity=0;align=left;" vertex="1" parent="6rrwSWFg2y9wVFzmrVbn-69">
          <mxGeometry y="5" width="40" height="80" as="geometry" />
        </mxCell>
        <mxCell id="6rrwSWFg2y9wVFzmrVbn-85" value="" style="edgeStyle=segmentEdgeStyle;endArrow=block;html=1;curved=0;rounded=0;endSize=8;startSize=8;startArrow=block;startFill=1;jumpStyle=arc;endFill=1;" edge="1" parent="6rrwSWFg2y9wVFzmrVbn-94">
          <mxGeometry width="50" height="50" relative="1" as="geometry">
            <mxPoint x="320" y="24" as="sourcePoint" />
            <mxPoint x="320" y="263" as="targetPoint" />
            <Array as="points">
              <mxPoint x="250" y="24" />
              <mxPoint x="250" y="263" />
            </Array>
          </mxGeometry>
        </mxCell>
        <mxCell id="6rrwSWFg2y9wVFzmrVbn-86" value="" style="edgeStyle=segmentEdgeStyle;endArrow=block;html=1;curved=0;rounded=0;endSize=8;startSize=8;startArrow=block;startFill=1;jumpStyle=arc;endFill=1;" edge="1" parent="6rrwSWFg2y9wVFzmrVbn-94">
          <mxGeometry width="50" height="50" relative="1" as="geometry">
            <mxPoint x="320" y="38" as="sourcePoint" />
            <mxPoint x="320" y="277" as="targetPoint" />
            <Array as="points">
              <mxPoint x="263" y="277" />
            </Array>
          </mxGeometry>
        </mxCell>
        <mxCell id="6rrwSWFg2y9wVFzmrVbn-87" value="" style="edgeStyle=segmentEdgeStyle;endArrow=none;html=1;curved=0;rounded=0;endSize=8;startSize=8;startArrow=none;startFill=0;endFill=0;jumpStyle=arc;" edge="1" parent="6rrwSWFg2y9wVFzmrVbn-94">
          <mxGeometry width="50" height="50" relative="1" as="geometry">
            <mxPoint x="320" y="53" as="sourcePoint" />
            <mxPoint x="320" y="292" as="targetPoint" />
            <Array as="points">
              <mxPoint x="278.98" y="292" />
            </Array>
          </mxGeometry>
        </mxCell>
        <mxCell id="6rrwSWFg2y9wVFzmrVbn-88" value="" style="endArrow=none;html=1;rounded=0;endFill=0;" edge="1" parent="6rrwSWFg2y9wVFzmrVbn-94">
          <mxGeometry width="50" height="50" relative="1" as="geometry">
            <mxPoint x="130" y="130" as="sourcePoint" />
            <mxPoint x="250" y="130" as="targetPoint" />
          </mxGeometry>
        </mxCell>
        <mxCell id="6rrwSWFg2y9wVFzmrVbn-89" value="" style="endArrow=none;html=1;rounded=0;endFill=0;jumpStyle=arc;" edge="1" parent="6rrwSWFg2y9wVFzmrVbn-94">
          <mxGeometry width="50" height="50" relative="1" as="geometry">
            <mxPoint x="130" y="144" as="sourcePoint" />
            <mxPoint x="263" y="144" as="targetPoint" />
          </mxGeometry>
        </mxCell>
        <mxCell id="6rrwSWFg2y9wVFzmrVbn-90" value="" style="endArrow=none;html=1;rounded=0;endFill=0;jumpStyle=arc;startArrow=block;startFill=1;" edge="1" parent="6rrwSWFg2y9wVFzmrVbn-94">
          <mxGeometry width="50" height="50" relative="1" as="geometry">
            <mxPoint x="130" y="158" as="sourcePoint" />
            <mxPoint x="279" y="158" as="targetPoint" />
          </mxGeometry>
        </mxCell>
        <mxCell id="6rrwSWFg2y9wVFzmrVbn-91" value="" style="edgeStyle=elbowEdgeStyle;elbow=horizontal;endArrow=block;html=1;curved=0;rounded=0;endSize=8;startSize=8;jumpStyle=arc;endFill=1;" edge="1" parent="6rrwSWFg2y9wVFzmrVbn-94">
          <mxGeometry width="50" height="50" relative="1" as="geometry">
            <mxPoint x="130" y="172" as="sourcePoint" />
            <mxPoint x="319" y="67" as="targetPoint" />
            <Array as="points">
              <mxPoint x="230" y="120" />
            </Array>
          </mxGeometry>
        </mxCell>
        <mxCell id="6rrwSWFg2y9wVFzmrVbn-92" value="" style="edgeStyle=elbowEdgeStyle;elbow=horizontal;endArrow=block;html=1;curved=0;rounded=0;endSize=8;startSize=8;jumpStyle=arc;endFill=1;entryX=0;entryY=0.75;entryDx=0;entryDy=0;" edge="1" parent="6rrwSWFg2y9wVFzmrVbn-94" target="6rrwSWFg2y9wVFzmrVbn-67">
          <mxGeometry width="50" height="50" relative="1" as="geometry">
            <mxPoint x="130" y="188" as="sourcePoint" />
            <mxPoint x="329" y="77" as="targetPoint" />
            <Array as="points">
              <mxPoint x="240" y="130" />
            </Array>
          </mxGeometry>
        </mxCell>
        <mxCell id="6rrwSWFg2y9wVFzmrVbn-93" value="" style="edgeStyle=elbowEdgeStyle;elbow=horizontal;endArrow=block;html=1;curved=0;rounded=0;endSize=8;startSize=8;jumpStyle=arc;endFill=1;" edge="1" parent="6rrwSWFg2y9wVFzmrVbn-94">
          <mxGeometry width="50" height="50" relative="1" as="geometry">
            <mxPoint x="130" y="201" as="sourcePoint" />
            <mxPoint x="320" y="307" as="targetPoint" />
            <Array as="points">
              <mxPoint x="240" y="143" />
            </Array>
          </mxGeometry>
        </mxCell>
        <mxCell id="6rrwSWFg2y9wVFzmrVbn-96" value="SPI实验参数选择" style="shape=table;startSize=30;container=1;collapsible=0;childLayout=tableLayout;fixedRows=1;rowLines=0;fontStyle=0;strokeColor=default;fontSize=16;" vertex="1" parent="1">
          <mxGeometry x="60" y="220" width="320" height="210" as="geometry" />
        </mxCell>
        <mxCell id="6rrwSWFg2y9wVFzmrVbn-97" value="" style="shape=tableRow;horizontal=0;startSize=0;swimlaneHead=0;swimlaneBody=0;top=0;left=0;bottom=0;right=0;collapsible=0;dropTarget=0;fillColor=none;points=[[0,0.5],[1,0.5]];portConstraint=eastwest;strokeColor=inherit;fontSize=16;" vertex="1" parent="6rrwSWFg2y9wVFzmrVbn-96">
          <mxGeometry y="30" width="320" height="30" as="geometry" />
        </mxCell>
        <mxCell id="6rrwSWFg2y9wVFzmrVbn-98" value="1" style="shape=partialRectangle;html=1;whiteSpace=wrap;connectable=0;fillColor=none;top=0;left=0;bottom=0;right=0;overflow=hidden;pointerEvents=1;strokeColor=inherit;fontSize=16;" vertex="1" parent="6rrwSWFg2y9wVFzmrVbn-97">
          <mxGeometry width="71" height="30" as="geometry">
            <mxRectangle width="71" height="30" as="alternateBounds" />
          </mxGeometry>
        </mxCell>
        <mxCell id="6rrwSWFg2y9wVFzmrVbn-99" value="SPI时钟频率：1MHz" style="shape=partialRectangle;html=1;whiteSpace=wrap;connectable=0;fillColor=none;top=0;left=0;bottom=0;right=0;align=left;spacingLeft=6;overflow=hidden;strokeColor=inherit;fontSize=16;" vertex="1" parent="6rrwSWFg2y9wVFzmrVbn-97">
          <mxGeometry x="71" width="249" height="30" as="geometry">
            <mxRectangle width="249" height="30" as="alternateBounds" />
          </mxGeometry>
        </mxCell>
        <mxCell id="6rrwSWFg2y9wVFzmrVbn-100" value="" style="shape=tableRow;horizontal=0;startSize=0;swimlaneHead=0;swimlaneBody=0;top=0;left=0;bottom=0;right=0;collapsible=0;dropTarget=0;fillColor=none;points=[[0,0.5],[1,0.5]];portConstraint=eastwest;strokeColor=inherit;fontSize=16;" vertex="1" parent="6rrwSWFg2y9wVFzmrVbn-96">
          <mxGeometry y="60" width="320" height="30" as="geometry" />
        </mxCell>
        <mxCell id="6rrwSWFg2y9wVFzmrVbn-101" value="2" style="shape=partialRectangle;html=1;whiteSpace=wrap;connectable=0;fillColor=none;top=0;left=0;bottom=0;right=0;overflow=hidden;strokeColor=inherit;fontSize=16;" vertex="1" parent="6rrwSWFg2y9wVFzmrVbn-100">
          <mxGeometry width="71" height="30" as="geometry">
            <mxRectangle width="71" height="30" as="alternateBounds" />
          </mxGeometry>
        </mxCell>
        <mxCell id="6rrwSWFg2y9wVFzmrVbn-102" value="SPI传输模式：Mode 0" style="shape=partialRectangle;html=1;whiteSpace=wrap;connectable=0;fillColor=none;top=0;left=0;bottom=0;right=0;align=left;spacingLeft=6;overflow=hidden;strokeColor=inherit;fontSize=16;" vertex="1" parent="6rrwSWFg2y9wVFzmrVbn-100">
          <mxGeometry x="71" width="249" height="30" as="geometry">
            <mxRectangle width="249" height="30" as="alternateBounds" />
          </mxGeometry>
        </mxCell>
        <mxCell id="6rrwSWFg2y9wVFzmrVbn-103" value="" style="shape=tableRow;horizontal=0;startSize=0;swimlaneHead=0;swimlaneBody=0;top=0;left=0;bottom=0;right=0;collapsible=0;dropTarget=0;fillColor=none;points=[[0,0.5],[1,0.5]];portConstraint=eastwest;strokeColor=inherit;fontSize=16;" vertex="1" parent="6rrwSWFg2y9wVFzmrVbn-96">
          <mxGeometry y="90" width="320" height="30" as="geometry" />
        </mxCell>
        <mxCell id="6rrwSWFg2y9wVFzmrVbn-104" value="3" style="shape=partialRectangle;html=1;whiteSpace=wrap;connectable=0;fillColor=none;top=0;left=0;bottom=0;right=0;overflow=hidden;strokeColor=inherit;fontSize=16;" vertex="1" parent="6rrwSWFg2y9wVFzmrVbn-103">
          <mxGeometry width="71" height="30" as="geometry">
            <mxRectangle width="71" height="30" as="alternateBounds" />
          </mxGeometry>
        </mxCell>
        <mxCell id="6rrwSWFg2y9wVFzmrVbn-105" value="时钟极性：CPOL=0" style="shape=partialRectangle;html=1;whiteSpace=wrap;connectable=0;fillColor=none;top=0;left=0;bottom=0;right=0;align=left;spacingLeft=6;overflow=hidden;strokeColor=inherit;fontSize=16;" vertex="1" parent="6rrwSWFg2y9wVFzmrVbn-103">
          <mxGeometry x="71" width="249" height="30" as="geometry">
            <mxRectangle width="249" height="30" as="alternateBounds" />
          </mxGeometry>
        </mxCell>
        <mxCell id="6rrwSWFg2y9wVFzmrVbn-106" value="" style="shape=tableRow;horizontal=0;startSize=0;swimlaneHead=0;swimlaneBody=0;top=0;left=0;bottom=0;right=0;collapsible=0;dropTarget=0;fillColor=none;points=[[0,0.5],[1,0.5]];portConstraint=eastwest;strokeColor=inherit;fontSize=16;" vertex="1" parent="6rrwSWFg2y9wVFzmrVbn-96">
          <mxGeometry y="120" width="320" height="30" as="geometry" />
        </mxCell>
        <mxCell id="6rrwSWFg2y9wVFzmrVbn-107" value="4" style="shape=partialRectangle;html=1;whiteSpace=wrap;connectable=0;fillColor=none;top=0;left=0;bottom=0;right=0;overflow=hidden;strokeColor=inherit;fontSize=16;" vertex="1" parent="6rrwSWFg2y9wVFzmrVbn-106">
          <mxGeometry width="71" height="30" as="geometry">
            <mxRectangle width="71" height="30" as="alternateBounds" />
          </mxGeometry>
        </mxCell>
        <mxCell id="6rrwSWFg2y9wVFzmrVbn-108" value="时钟相位：CPHA=0" style="shape=partialRectangle;html=1;whiteSpace=wrap;connectable=0;fillColor=none;top=0;left=0;bottom=0;right=0;align=left;spacingLeft=6;overflow=hidden;strokeColor=inherit;fontSize=16;" vertex="1" parent="6rrwSWFg2y9wVFzmrVbn-106">
          <mxGeometry x="71" width="249" height="30" as="geometry">
            <mxRectangle width="249" height="30" as="alternateBounds" />
          </mxGeometry>
        </mxCell>
        <mxCell id="6rrwSWFg2y9wVFzmrVbn-116" value="" style="shape=tableRow;horizontal=0;startSize=0;swimlaneHead=0;swimlaneBody=0;top=0;left=0;bottom=0;right=0;collapsible=0;dropTarget=0;fillColor=none;points=[[0,0.5],[1,0.5]];portConstraint=eastwest;strokeColor=inherit;fontSize=16;" vertex="1" parent="6rrwSWFg2y9wVFzmrVbn-96">
          <mxGeometry y="150" width="320" height="30" as="geometry" />
        </mxCell>
        <mxCell id="6rrwSWFg2y9wVFzmrVbn-117" value="5" style="shape=partialRectangle;html=1;whiteSpace=wrap;connectable=0;fillColor=none;top=0;left=0;bottom=0;right=0;overflow=hidden;strokeColor=inherit;fontSize=16;" vertex="1" parent="6rrwSWFg2y9wVFzmrVbn-116">
          <mxGeometry width="71" height="30" as="geometry">
            <mxRectangle width="71" height="30" as="alternateBounds" />
          </mxGeometry>
        </mxCell>
        <mxCell id="6rrwSWFg2y9wVFzmrVbn-118" value="数据位宽：8 bit" style="shape=partialRectangle;html=1;whiteSpace=wrap;connectable=0;fillColor=none;top=0;left=0;bottom=0;right=0;align=left;spacingLeft=6;overflow=hidden;strokeColor=inherit;fontSize=16;" vertex="1" parent="6rrwSWFg2y9wVFzmrVbn-116">
          <mxGeometry x="71" width="249" height="30" as="geometry">
            <mxRectangle width="249" height="30" as="alternateBounds" />
          </mxGeometry>
        </mxCell>
        <mxCell id="6rrwSWFg2y9wVFzmrVbn-109" value="" style="shape=tableRow;horizontal=0;startSize=0;swimlaneHead=0;swimlaneBody=0;top=0;left=0;bottom=0;right=0;collapsible=0;dropTarget=0;fillColor=none;points=[[0,0.5],[1,0.5]];portConstraint=eastwest;strokeColor=inherit;fontSize=16;" vertex="1" parent="6rrwSWFg2y9wVFzmrVbn-96">
          <mxGeometry y="180" width="320" height="30" as="geometry" />
        </mxCell>
        <mxCell id="6rrwSWFg2y9wVFzmrVbn-110" value="6" style="shape=partialRectangle;html=1;whiteSpace=wrap;connectable=0;fillColor=none;top=0;left=0;bottom=0;right=0;overflow=hidden;strokeColor=inherit;fontSize=16;" vertex="1" parent="6rrwSWFg2y9wVFzmrVbn-109">
          <mxGeometry width="71" height="30" as="geometry">
            <mxRectangle width="71" height="30" as="alternateBounds" />
          </mxGeometry>
        </mxCell>
        <mxCell id="6rrwSWFg2y9wVFzmrVbn-111" value="数据传输顺序：高位先行(MSB)" style="shape=partialRectangle;html=1;whiteSpace=wrap;connectable=0;fillColor=none;top=0;left=0;bottom=0;right=0;align=left;spacingLeft=6;overflow=hidden;strokeColor=inherit;fontSize=16;" vertex="1" parent="6rrwSWFg2y9wVFzmrVbn-109">
          <mxGeometry x="71" width="249" height="30" as="geometry">
            <mxRectangle width="249" height="30" as="alternateBounds" />
          </mxGeometry>
        </mxCell>
        <mxCell id="6rrwSWFg2y9wVFzmrVbn-115" value="&lt;div style=&quot;&quot;&gt;FPGA时钟频率：&lt;font color=&quot;#ff0000&quot;&gt;50,000,000&lt;/font&gt;Hz&lt;/div&gt;&lt;div style=&quot;&quot;&gt;串口通信波特率：115200 baud&lt;/div&gt;&lt;div style=&quot;&quot;&gt;每一个bit传输需要时钟周期数：50,000,000/115,200≈434&lt;/div&gt;&lt;div style=&quot;&quot;&gt;0.5个bit传输需要时钟周期数：434/2=217&lt;/div&gt;" style="text;strokeColor=#6c8ebf;fillColor=#dae8fc;html=1;whiteSpace=wrap;verticalAlign=middle;overflow=hidden;align=center;" vertex="1" parent="1">
          <mxGeometry x="100" y="560" width="380" height="90" as="geometry" />
        </mxCell>
      </root>
    </mxGraphModel>
  </diagram>
</mxfile>
